<mxfile host="app.diagrams.net" modified="2020-11-18T07:33:48.042Z" agent="5.0 (Windows NT 10.0; Win64; x64) AppleWebKit/537.36 (KHTML, like Gecko) Chrome/86.0.4240.198 Safari/537.36" etag="raMINsMrrQF1Ghz1I6VB" version="13.9.9" type="github">
  <diagram id="4U4ffIWJsKZaTYMK4kzf" name="Page-1">
    <mxGraphModel dx="1019" dy="519" grid="1" gridSize="10" guides="1" tooltips="1" connect="1" arrows="1" fold="1" page="1" pageScale="1" pageWidth="850" pageHeight="1100" math="0" shadow="0">
      <root>
        <mxCell id="0" />
        <mxCell id="1" parent="0" />
        <mxCell id="ZcNaWhCjVrpej0iKAVWI-11" value="Yêu cầu thanh toán" style="edgeStyle=orthogonalEdgeStyle;rounded=0;orthogonalLoop=1;jettySize=auto;html=1;exitX=1;exitY=0.25;exitDx=0;exitDy=0;entryX=0.031;entryY=0.315;entryDx=0;entryDy=0;entryPerimeter=0;" parent="1" source="ZcNaWhCjVrpej0iKAVWI-1" target="ZcNaWhCjVrpej0iKAVWI-2" edge="1">
          <mxGeometry relative="1" as="geometry">
            <Array as="points">
              <mxPoint x="180" y="180" />
            </Array>
          </mxGeometry>
        </mxCell>
        <mxCell id="ZcNaWhCjVrpej0iKAVWI-1" value="Bệnh nhân" style="rounded=0;whiteSpace=wrap;html=1;" parent="1" vertex="1">
          <mxGeometry x="60" y="170" width="120" height="65" as="geometry" />
        </mxCell>
        <mxCell id="ZcNaWhCjVrpej0iKAVWI-6" style="edgeStyle=orthogonalEdgeStyle;rounded=0;orthogonalLoop=1;jettySize=auto;html=1;exitX=1;exitY=1;exitDx=0;exitDy=0;entryX=0;entryY=0.75;entryDx=0;entryDy=0;" parent="1" source="ZcNaWhCjVrpej0iKAVWI-2" target="ZcNaWhCjVrpej0iKAVWI-4" edge="1">
          <mxGeometry relative="1" as="geometry">
            <Array as="points">
              <mxPoint x="467" y="223" />
              <mxPoint x="548" y="223" />
            </Array>
          </mxGeometry>
        </mxCell>
        <mxCell id="ZcNaWhCjVrpej0iKAVWI-7" value="Yêu cầu lập hóa đơn" style="edgeLabel;html=1;align=center;verticalAlign=middle;resizable=0;points=[];" parent="ZcNaWhCjVrpej0iKAVWI-6" vertex="1" connectable="0">
          <mxGeometry x="0.0894" y="1" relative="1" as="geometry">
            <mxPoint as="offset" />
          </mxGeometry>
        </mxCell>
        <mxCell id="ZcNaWhCjVrpej0iKAVWI-12" style="edgeStyle=orthogonalEdgeStyle;rounded=0;orthogonalLoop=1;jettySize=auto;html=1;exitX=0;exitY=1;exitDx=0;exitDy=0;entryX=1;entryY=0.75;entryDx=0;entryDy=0;" parent="1" source="ZcNaWhCjVrpej0iKAVWI-2" target="ZcNaWhCjVrpej0iKAVWI-1" edge="1">
          <mxGeometry relative="1" as="geometry">
            <Array as="points">
              <mxPoint x="348" y="219" />
            </Array>
          </mxGeometry>
        </mxCell>
        <mxCell id="ZcNaWhCjVrpej0iKAVWI-13" value="Phiếu thu" style="edgeLabel;html=1;align=center;verticalAlign=middle;resizable=0;points=[];" parent="ZcNaWhCjVrpej0iKAVWI-12" vertex="1" connectable="0">
          <mxGeometry x="0.2432" y="-2" relative="1" as="geometry">
            <mxPoint as="offset" />
          </mxGeometry>
        </mxCell>
        <mxCell id="ZcNaWhCjVrpej0iKAVWI-16" style="edgeStyle=orthogonalEdgeStyle;rounded=0;orthogonalLoop=1;jettySize=auto;html=1;exitX=0;exitY=1;exitDx=0;exitDy=0;entryX=0.5;entryY=0;entryDx=0;entryDy=0;" parent="1" source="ZcNaWhCjVrpej0iKAVWI-2" target="ZcNaWhCjVrpej0iKAVWI-15" edge="1">
          <mxGeometry relative="1" as="geometry">
            <Array as="points">
              <mxPoint x="348" y="250" />
              <mxPoint x="255" y="250" />
            </Array>
          </mxGeometry>
        </mxCell>
        <mxCell id="ZcNaWhCjVrpej0iKAVWI-17" style="edgeStyle=orthogonalEdgeStyle;rounded=0;orthogonalLoop=1;jettySize=auto;html=1;exitX=0.5;exitY=1;exitDx=0;exitDy=0;entryX=0.437;entryY=0.045;entryDx=0;entryDy=0;entryPerimeter=0;" parent="1" source="ZcNaWhCjVrpej0iKAVWI-2" target="ZcNaWhCjVrpej0iKAVWI-14" edge="1">
          <mxGeometry relative="1" as="geometry">
            <Array as="points">
              <mxPoint x="390" y="255" />
              <mxPoint x="508" y="255" />
            </Array>
          </mxGeometry>
        </mxCell>
        <mxCell id="ZcNaWhCjVrpej0iKAVWI-2" value="Thanh toán" style="ellipse;whiteSpace=wrap;html=1;" parent="1" vertex="1">
          <mxGeometry x="330" y="155" width="120" height="80" as="geometry" />
        </mxCell>
        <mxCell id="ZcNaWhCjVrpej0iKAVWI-5" value="Hóa đơn" style="edgeStyle=orthogonalEdgeStyle;rounded=0;orthogonalLoop=1;jettySize=auto;html=1;entryX=1;entryY=0.5;entryDx=0;entryDy=0;" parent="1" source="ZcNaWhCjVrpej0iKAVWI-4" target="ZcNaWhCjVrpej0iKAVWI-2" edge="1">
          <mxGeometry relative="1" as="geometry">
            <Array as="points">
              <mxPoint x="580" y="195" />
              <mxPoint x="580" y="195" />
            </Array>
          </mxGeometry>
        </mxCell>
        <mxCell id="ZcNaWhCjVrpej0iKAVWI-4" value="Bộ phận tài chính kế toán" style="rounded=0;whiteSpace=wrap;html=1;" parent="1" vertex="1">
          <mxGeometry x="630" y="185" width="110" height="50" as="geometry" />
        </mxCell>
        <mxCell id="ZcNaWhCjVrpej0iKAVWI-20" style="edgeStyle=orthogonalEdgeStyle;rounded=0;orthogonalLoop=1;jettySize=auto;html=1;entryX=0.5;entryY=0;entryDx=0;entryDy=0;" parent="1" source="ZcNaWhCjVrpej0iKAVWI-14" target="ZcNaWhCjVrpej0iKAVWI-18" edge="1">
          <mxGeometry relative="1" as="geometry" />
        </mxCell>
        <mxCell id="ZcNaWhCjVrpej0iKAVWI-14" value="Phiếu thu" style="shape=partialRectangle;whiteSpace=wrap;html=1;left=0;right=0;fillColor=none;" parent="1" vertex="1">
          <mxGeometry x="460" y="270" width="110" height="30" as="geometry" />
        </mxCell>
        <mxCell id="ZcNaWhCjVrpej0iKAVWI-26" style="edgeStyle=orthogonalEdgeStyle;rounded=0;orthogonalLoop=1;jettySize=auto;html=1;exitX=0.25;exitY=1;exitDx=0;exitDy=0;entryX=0.25;entryY=0.25;entryDx=0;entryDy=0;entryPerimeter=0;" parent="1" source="ZcNaWhCjVrpej0iKAVWI-15" target="ZcNaWhCjVrpej0iKAVWI-22" edge="1">
          <mxGeometry relative="1" as="geometry">
            <Array as="points">
              <mxPoint x="220" y="300" />
            </Array>
          </mxGeometry>
        </mxCell>
        <mxCell id="ZcNaWhCjVrpej0iKAVWI-15" value="Hóa đơn" style="shape=partialRectangle;whiteSpace=wrap;html=1;left=0;right=0;fillColor=none;" parent="1" vertex="1">
          <mxGeometry x="200" y="270" width="110" height="30" as="geometry" />
        </mxCell>
        <mxCell id="ZcNaWhCjVrpej0iKAVWI-18" value="Kiểm kê đối chiếu" style="ellipse;whiteSpace=wrap;html=1;" parent="1" vertex="1">
          <mxGeometry x="455" y="340" width="120" height="80" as="geometry" />
        </mxCell>
        <mxCell id="ZcNaWhCjVrpej0iKAVWI-30" style="edgeStyle=orthogonalEdgeStyle;rounded=0;orthogonalLoop=1;jettySize=auto;html=1;" parent="1" source="ZcNaWhCjVrpej0iKAVWI-19" target="ZcNaWhCjVrpej0iKAVWI-18" edge="1">
          <mxGeometry relative="1" as="geometry">
            <Array as="points">
              <mxPoint x="515" y="460" />
              <mxPoint x="515" y="460" />
            </Array>
          </mxGeometry>
        </mxCell>
        <mxCell id="ZcNaWhCjVrpej0iKAVWI-36" style="edgeStyle=orthogonalEdgeStyle;rounded=0;orthogonalLoop=1;jettySize=auto;html=1;entryX=0.021;entryY=0.595;entryDx=0;entryDy=0;entryPerimeter=0;" parent="1" source="ZcNaWhCjVrpej0iKAVWI-19" target="ZcNaWhCjVrpej0iKAVWI-31" edge="1">
          <mxGeometry relative="1" as="geometry">
            <Array as="points">
              <mxPoint x="388" y="554" />
            </Array>
          </mxGeometry>
        </mxCell>
        <mxCell id="ZcNaWhCjVrpej0iKAVWI-19" value="Thống kê hóa đơn" style="shape=partialRectangle;whiteSpace=wrap;html=1;left=0;right=0;fillColor=none;" parent="1" vertex="1">
          <mxGeometry x="330" y="480" width="115" height="40" as="geometry" />
        </mxCell>
        <mxCell id="ZcNaWhCjVrpej0iKAVWI-29" style="edgeStyle=orthogonalEdgeStyle;rounded=0;orthogonalLoop=1;jettySize=auto;html=1;entryX=0;entryY=0.5;entryDx=0;entryDy=0;" parent="1" source="ZcNaWhCjVrpej0iKAVWI-22" target="ZcNaWhCjVrpej0iKAVWI-19" edge="1">
          <mxGeometry relative="1" as="geometry">
            <Array as="points">
              <mxPoint x="280" y="500" />
            </Array>
          </mxGeometry>
        </mxCell>
        <mxCell id="ZcNaWhCjVrpej0iKAVWI-22" value="Thống kê hóa đơn" style="ellipse;whiteSpace=wrap;html=1;" parent="1" vertex="1">
          <mxGeometry x="190" y="340" width="120" height="80" as="geometry" />
        </mxCell>
        <mxCell id="ZcNaWhCjVrpej0iKAVWI-24" style="edgeStyle=orthogonalEdgeStyle;rounded=0;orthogonalLoop=1;jettySize=auto;html=1;entryX=0;entryY=0.5;entryDx=0;entryDy=0;" parent="1" source="ZcNaWhCjVrpej0iKAVWI-23" target="ZcNaWhCjVrpej0iKAVWI-22" edge="1">
          <mxGeometry relative="1" as="geometry" />
        </mxCell>
        <mxCell id="ZcNaWhCjVrpej0iKAVWI-23" value="Nhân viên kế toán" style="rounded=0;whiteSpace=wrap;html=1;" parent="1" vertex="1">
          <mxGeometry x="30" y="355" width="110" height="50" as="geometry" />
        </mxCell>
        <mxCell id="ZcNaWhCjVrpej0iKAVWI-28" style="edgeStyle=orthogonalEdgeStyle;rounded=0;orthogonalLoop=1;jettySize=auto;html=1;" parent="1" source="ZcNaWhCjVrpej0iKAVWI-27" target="ZcNaWhCjVrpej0iKAVWI-18" edge="1">
          <mxGeometry relative="1" as="geometry" />
        </mxCell>
        <mxCell id="ZcNaWhCjVrpej0iKAVWI-32" style="edgeStyle=orthogonalEdgeStyle;rounded=0;orthogonalLoop=1;jettySize=auto;html=1;" parent="1" source="ZcNaWhCjVrpej0iKAVWI-27" target="ZcNaWhCjVrpej0iKAVWI-31" edge="1">
          <mxGeometry relative="1" as="geometry" />
        </mxCell>
        <mxCell id="ZcNaWhCjVrpej0iKAVWI-27" value="Nhân viên tài chính" style="rounded=0;whiteSpace=wrap;html=1;" parent="1" vertex="1">
          <mxGeometry x="660" y="355" width="110" height="50" as="geometry" />
        </mxCell>
        <mxCell id="ZcNaWhCjVrpej0iKAVWI-38" style="edgeStyle=orthogonalEdgeStyle;rounded=0;orthogonalLoop=1;jettySize=auto;html=1;entryX=1;entryY=0.75;entryDx=0;entryDy=0;" parent="1" source="ZcNaWhCjVrpej0iKAVWI-31" target="ZcNaWhCjVrpej0iKAVWI-33" edge="1">
          <mxGeometry relative="1" as="geometry">
            <Array as="points">
              <mxPoint x="715" y="635" />
            </Array>
          </mxGeometry>
        </mxCell>
        <mxCell id="ZcNaWhCjVrpej0iKAVWI-39" value="Báo cáo" style="edgeLabel;html=1;align=center;verticalAlign=middle;resizable=0;points=[];" parent="ZcNaWhCjVrpej0iKAVWI-38" vertex="1" connectable="0">
          <mxGeometry x="0.066" y="1" relative="1" as="geometry">
            <mxPoint as="offset" />
          </mxGeometry>
        </mxCell>
        <mxCell id="ZcNaWhCjVrpej0iKAVWI-31" value="Lập báo cáo" style="ellipse;whiteSpace=wrap;html=1;" parent="1" vertex="1">
          <mxGeometry x="647.5" y="500" width="135" height="90" as="geometry" />
        </mxCell>
        <mxCell id="ZcNaWhCjVrpej0iKAVWI-37" value="Yêu cầu báo cáo" style="edgeStyle=orthogonalEdgeStyle;rounded=0;orthogonalLoop=1;jettySize=auto;html=1;entryX=0.268;entryY=0.978;entryDx=0;entryDy=0;entryPerimeter=0;" parent="1" source="ZcNaWhCjVrpej0iKAVWI-33" target="ZcNaWhCjVrpej0iKAVWI-31" edge="1">
          <mxGeometry relative="1" as="geometry">
            <Array as="points">
              <mxPoint x="684" y="600" />
            </Array>
          </mxGeometry>
        </mxCell>
        <mxCell id="ZcNaWhCjVrpej0iKAVWI-33" value="Ban giám đốc" style="rounded=0;whiteSpace=wrap;html=1;" parent="1" vertex="1">
          <mxGeometry x="310" y="590" width="120" height="60" as="geometry" />
        </mxCell>
      </root>
    </mxGraphModel>
  </diagram>
</mxfile>
